<?xml version="1.0" encoding="UTF-8" standalone="no"?><svg xmlns="http://www.w3.org/2000/svg" version="1.1" xml:space="preserve" height="35.182" viewBox="0 0 242.07401 35.182" width="242.07" enable-background="new 0 0 612 792" y="0px" x="0px">
<g transform="translate(-180.996,-378.409)">
<path fill="#717073" d="m329.63,398.06c-0.377-0.064-1.641-0.277-2.012-0.345-1.997-0.356-3.708-0.825-3.708-2.834,0-1.726,1.81-2.531,4.06-2.531,3.35,0,6.285,1.517,6.621,1.686l1.836-4.844c-0.705-0.367-3.694-1.963-8.399-1.963-4.312,0-9.574,2.263-9.574,7.895,0,5.039,3.601,6.656,7.07,7.268,0.478,0.088,1.985,0.346,2.415,0.421,2.334,0.394,3.617,1.263,3.617,2.792,0,1.936-1.82,2.846-4.577,2.846-4.412,0-7.004-1.314-7.752-1.624l-2.033,4.741c0.633,0.324,3.644,2.023,9.523,2.023,5.706,0,10.283-2.827,10.283-8.086-0.043-4.895-3.335-6.751-7.37-7.445"/>
<path fill="#717073" d="m347.05,378.41-5.398,2.987v6.324h-2.844v5.164h2.844v11.162c0,4.769,1.959,9.051,8.871,9.051h2.163v-5.167h-0.809c-3.401,0-4.827-1.961-4.827-4.625v-10.421h6.2v-5.164h-6.2v-9.311z"/>
<path fill="#717073" d="m389.23,392.48c2.108,0,4.266,0.958,4.913,3.277l4.899-1.863c-1.37-4.85-5.876-6.663-9.851-6.663-7.122,0-9.992,4.421-9.992,8.719v8.92c0,4.295,2.87,8.721,9.992,8.721,3.975,0,8.48-1.815,9.851-6.667l-4.899-1.861c-0.647,2.317-2.805,3.279-4.913,3.279-3.668,0-4.641-2.009-4.641-4.297v-7.271c0.001-2.287,0.974-4.294,4.641-4.294"/>
<polygon points="401.68,413.1,407.09,413.1,407.09,405.02,408.86,403.02,416.59,413.1,423.07,413.1,412.32,399.12,422.41,387.72,415.77,387.72,407.09,397.66,407.09,378.41,401.68,378.41" fill="#717073"/>
<path fill="#ee3124" d="m368.35,393.26h-5.615c-0.893,0-1.618,0.725-1.618,1.615v6.09h-5.536v-6.09c0-3.953,3.201-7.155,7.154-7.155h5.615v5.54z"/>
<path fill="#ee3124" d="m363.78,407.56h5.617c0.891,0,1.617-0.724,1.617-1.615v-6.091h5.536v6.091c0,3.95-3.203,7.155-7.153,7.155h-5.617v-5.54z"/>
<path fill="#ee3124" d="m272.22,387.72h6.2v5.164h-6.2v10.421c0,2.664,1.426,4.625,4.822,4.625h0.812v5.167h-2.164c-6.915,0-8.869-4.279-8.869-9.049v-11.164h-9.087v10.421c0,2.664,1.428,4.625,4.822,4.625h0.81v5.167h-2.164c-6.912,0-8.869-4.279-8.869-9.049v-11.164h-2.739v-5.164h2.739v-6.324l5.401-2.987v9.312h9.087v-6.324l5.399-2.987v9.31z"/>
<path fill="#ee3124" d="m213.93,387.23c-1.708,0-3.441,0.33-5.002,0.991v-9.812h-5.398v34.688h5.398v-19.829c1.087-0.682,2.647-1.089,4.175-1.089,3.396,0,4.991,1.887,4.991,4.67v16.248h5.396v-16.99c0-5.119-3.712-8.881-9.56-8.881"/>
<path fill="#ee3124" d="m241.3,408.05c-1.026,0.555-2.326,0.873-3.618,0.873-4.03,0-5.544-2.055-5.544-4.886v-16.318h-5.401v16.418c0,6.38,3.688,9.451,10.281,9.451,3.156,0,6.652-0.798,9.68-2.109v-23.76h-5.397v20.331z"/>
<path fill="#ee3124" d="m193.43,398.06c-0.372-0.064-1.64-0.277-2.011-0.345-1.993-0.356-3.707-0.825-3.707-2.834,0-1.726,1.808-2.531,4.061-2.531,3.348,0,6.285,1.517,6.619,1.686l1.837-4.844c-0.701-0.367-3.694-1.963-8.402-1.963-4.309,0-9.573,2.263-9.573,7.895,0,5.039,3.598,6.656,7.072,7.268,0.479,0.088,1.986,0.346,2.419,0.421,2.334,0.394,3.609,1.263,3.609,2.792,0,1.936-1.813,2.846-4.57,2.846-4.417,0-7.008-1.314-7.755-1.624l-2.033,4.74c0.633,0.324,3.645,2.023,9.523,2.023,5.705,0,10.283-2.827,10.283-8.086-0.048-4.894-3.338-6.75-7.372-7.444"/>
<path fill="#ee3124" d="m300.75,395.95c0-4.642-3.537-8.722-9.899-8.722-7.222,0-9.992,4.508-9.992,8.722v8.428c0,5.83,3.724,9.213,9.992,9.213,5.529,0,8.399-3.197,9.253-5.117l-4.561-2.739c-0.388,1.128-2.192,2.711-4.655,2.711-3.339,0-4.623-1.864-4.623-4.197l-0.021-1.39h14.506v-6.909zm-5.401,2.535h-9.104v-1.847c0-2.059,1.035-4.267,4.582-4.267,3.417,0,4.522,2.151,4.522,4.168v1.946z"/>
<path fill="#ee3124" d="m304.2,395.96v17.14h5.395v-16.68c0-1.456,0.827-3.945,4.79-3.945,0.623,0,2.026,0.177,2.478,0.26v-5.234c-0.487-0.118-1.603-0.274-2.753-0.274-6.865,0-9.91,4.305-9.91,8.731"/>
</g>
</svg>