<svg xmlns="http://www.w3.org/2000/svg" width="449.957" height="365.441"><path d="M449.957 43.398c-17.702 7.614-35.408 12.37-53.102 14.28 19.985-11.992 33.503-28.932 40.546-50.82-18.28 10.847-37.786 18.268-58.53 22.267C360.594 9.71 338.14 0 311.485 0c-25.502 0-47.246 8.99-65.24 26.98-17.984 17.985-26.977 39.73-26.977 65.233 0 6.85.76 13.896 2.283 21.128-37.688-1.9-73.042-11.37-106.068-28.405C82.46 67.9 54.435 45.2 31.405 16.84 23.03 31.115 18.84 46.63 18.84 63.38c0 15.798 3.71 30.456 11.137 43.97 7.422 13.512 17.417 24.455 29.98 32.83-14.85-.57-28.743-4.474-41.684-11.707v1.143c0 22.27 6.995 41.824 20.983 58.674 13.99 16.848 31.645 27.454 52.96 31.834-7.993 2.09-16.084 3.138-24.267 3.138-5.33 0-11.137-.475-17.417-1.42 5.9 18.46 16.75 33.633 32.546 45.535 15.8 11.896 33.69 18.028 53.676 18.418-33.498 26.263-71.66 39.394-114.486 39.394-8.188 0-15.61-.373-22.27-1.14 42.825 27.597 90.03 41.397 141.61 41.397 32.74 0 63.48-5.18 92.21-15.556 28.748-10.368 53.3-24.266 73.667-41.685 20.362-17.416 37.925-37.45 52.674-60.098 14.75-22.65 25.74-46.297 32.978-70.945 7.23-24.653 10.848-49.344 10.848-74.092 0-5.33-.096-9.325-.287-11.99 18.086-13.128 33.503-29.024 46.257-47.673z" fill="#333"/></svg>